<?xml version="1.0" encoding="UTF-8" standalone="no"?>
<!-- Created with Inkscape (http://www.inkscape.org/) -->

<svg
   version="1.1"
   id="svg7779"
   width="880"
   height="880"
   viewBox="0 0 880 880"
   sodipodi:docname="orange-juice-can-publicdomainvectors.org.svg"
   inkscape:version="1.2 (dc2aedaf03, 2022-05-15)"
   xmlns:inkscape="http://www.inkscape.org/namespaces/inkscape"
   xmlns:sodipodi="http://sodipodi.sourceforge.net/DTD/sodipodi-0.dtd"
   xmlns="http://www.w3.org/2000/svg"
   xmlns:svg="http://www.w3.org/2000/svg">
  <defs
     id="defs7783">
    <clipPath
       clipPathUnits="userSpaceOnUse"
       id="clipPath7795">
      <path
         d="M 0,660 H 660 V 0 H 0 Z"
         id="path7793" />
    </clipPath>
  </defs>
  <sodipodi:namedview
     id="namedview7781"
     pagecolor="#ffffff"
     bordercolor="#000000"
     borderopacity="0.25"
     inkscape:showpageshadow="2"
     inkscape:pageopacity="0.0"
     inkscape:pagecheckerboard="0"
     inkscape:deskcolor="#d1d1d1"
     showgrid="false"
     inkscape:zoom="0.95113636"
     inkscape:cx="441.05137"
     inkscape:cy="440.52569"
     inkscape:window-width="1920"
     inkscape:window-height="1017"
     inkscape:window-x="-8"
     inkscape:window-y="-8"
     inkscape:window-maximized="1"
     inkscape:current-layer="g7787">
    <inkscape:page
       x="0"
       y="0"
       id="page7785"
       width="880"
       height="880" />
  </sodipodi:namedview>
  <g
     id="g7787"
     inkscape:groupmode="layer"
     inkscape:label="Page 1"
     transform="matrix(1.3333333,0,0,-1.3333333,0,880)">
    <g
       id="g7789">
      <g
         id="g7791"
         clip-path="url(#clipPath7795)">
        <g
           id="g7797"
           transform="translate(280.084,211.1787)">
          <path
             d="m 0,0 c 138.08,0 250.7,28.116 250.7,62.591 0,34.474 -112.62,62.592 -250.7,62.592 -138.083,0 -250.703,-28.118 -250.703,-62.592 C -250.703,28.117 -138.083,0 0,0"
             style="fill:#e6e6e6;fill-opacity:1;fill-rule:evenodd;stroke:none"
             id="path7799" />
        </g>
        <g
           id="g7801"
           transform="translate(460.1641,121.3242)">
          <path
             d="m 0,0 c -12.197,-1.117 -80.842,-7.113 -90.975,-2.554 -19.814,8.915 27.362,30.142 -62.865,43.751 -41.596,6.276 -72.865,8.362 -114.515,10.247 -19.633,0.888 -76.368,0.968 -80.92,24.33 l -0.382,4.655 c -0.504,31.492 39.756,35.55 64.1,39.141 47.672,7.032 86.205,8.068 133.773,9.367 39.588,1.083 67.741,8.916 17.567,35.77 l -3.571,1.91 c -7.771,4.036 -41.998,18.433 -26.66,28.1 23.898,15.064 98.824,16.635 126.586,15.562 51.433,-2.19 146.932,-15.476 190.048,-41.642 C 208.087,134.713 73.055,125.004 57.555,122.487 48.368,120.995 0.469,112.743 25.041,95.25 45.023,81.027 130.463,69.074 134.66,44.884 139.452,17.246 20.88,2.081 0,0"
             style="fill:#eb6200;fill-opacity:1;fill-rule:evenodd;stroke:none"
             id="path7803" />
        </g>
        <g
           id="g7805"
           transform="translate(341.7568,276.4424)">
          <path
             d="m 0,0 c -4.033,2.89 -9.247,6.074 -15.81,9.589 l -3.571,1.91 c -7.77,4.036 -41.998,18.433 -26.66,28.1 23.898,15.064 98.824,16.635 126.586,15.562 1.911,-0.081 3.892,-0.181 5.919,-0.293 V 34.097 C 86.465,15.343 71.119,0 52.366,0 Z"
             style="fill:#c25100;fill-opacity:1;fill-rule:evenodd;stroke:none"
             id="path7807" />
        </g>
        <g
           id="g7809"
           transform="translate(89.5293,291.7666)">
          <path
             d="m 0,0 c -34.489,0 -62.448,47.688 -62.448,106.512 0,58.824 27.959,106.511 62.448,106.511 v 0.001 h 308.426 c 18.755,0 34.097,-15.344 34.097,-34.098 V 34.098 C 342.523,15.344 327.181,0 308.426,0 Z"
             style="fill:#ff7512;fill-opacity:1;fill-rule:evenodd;stroke:none"
             id="path7811" />
        </g>
        <g
           id="g7813"
           transform="translate(301.9541,497.6929)">
          <path
             d="m 0,0 -212.425,-0.001 c -1.735,0 -3.467,-0.15 -5.177,-0.447 -8.367,-1.45 -15.625,-6.217 -21.66,-12.363 -4.362,-4.442 -6.46,-9.894 -6.203,-16.115 0.255,-6.223 2.794,-11.481 7.508,-15.552 1.073,-0.926 2.21,-1.852 3.415,-2.775 10.766,-8.258 52.03,6.162 84.541,0.799 46.453,-7.664 42.187,-47.798 96.781,-27.006 32.058,12.21 86.624,55.048 53.22,73.459 z"
             style="fill:#ff8833;fill-opacity:1;fill-rule:evenodd;stroke:none"
             id="path7815" />
        </g>
        <g
           id="g7817"
           transform="translate(253.3262,490.2471)">
          <path
             d="m 0,0 h -163.797 c -0.848,0 -1.696,-0.073 -2.529,-0.218 -5.128,-0.89 -9.698,-4.33 -13.255,-7.953 -1.352,-1.378 -1.86,-2.696 -1.781,-4.625 0.08,-1.942 0.686,-3.195 2.155,-4.465 0.574,-0.494 1.157,-0.976 1.746,-1.449 3.871,-0.705 13.727,0.466 17.097,0.848 11.509,1.303 22.883,2.9 34.474,3.431 9.002,0.413 18.131,0.222 27.041,-1.247 13.669,-2.255 25.241,-7.113 36.518,-15.082 6.378,-4.508 12.786,-10.65 19.398,-14.48 10.35,-5.995 22.387,-2.226 32.827,1.748 6.617,2.52 13.379,6.089 19.682,10.014 6.965,4.339 10.09,12.46 7.832,20.349 C 15.153,-5.241 8.204,0 0,0"
             style="fill:#ffa05c;fill-opacity:1;fill-rule:evenodd;stroke:none"
             id="path7819" />
        </g>
        <g
           id="g7821"
           transform="translate(89.5293,291.7666)">
          <path
             d="m 0,0 c -31.403,0 -57.39,39.538 -61.79,91.016 2.115,-9.842 4.887,-18.304 8.204,-25.617 9.848,-21.707 30.236,-34.845 54.075,-34.845 h 179.849 c 11.658,0 21.69,4.36 29.645,12.883 7.954,8.524 11.611,18.835 10.808,30.467 -4.226,61.121 16.468,128.314 75.764,128.294 C 260.103,182.838 250.868,141.973 251.502,94.086 252.235,38.642 284.277,0.127 312.284,0.222 311.017,0.077 309.729,0 308.426,0 Z"
             style="fill:#eb6200;fill-opacity:1;fill-rule:evenodd;stroke:none"
             id="path7823" />
        </g>
        <g
           id="g7825"
           transform="translate(415.665,301.7275)">
          <path
             d="m 0,0 c 34.396,0 62.451,43.373 62.451,96.551 0,53.178 -28.055,96.551 -62.452,96.551 -34.395,0 -62.451,-43.373 -62.451,-96.551 C -62.452,43.373 -34.396,0 0,0"
             style="fill:#b3b3b3;fill-opacity:1;fill-rule:evenodd;stroke:none"
             id="path7827" />
        </g>
        <g
           id="g7829"
           transform="translate(437.5029,484.2495)">
          <path
             d="m 0,0 c 24.691,-9.966 42.913,-44.677 42.913,-85.971 0,-41.294 -18.222,-76.006 -42.913,-85.972 v -2.88 h -14.558 c -31.74,0 -57.469,39.781 -57.469,88.852 0,49.071 25.729,88.851 57.469,88.851 L 0,2.88 Z"
             style="fill:#cccccc;fill-opacity:1;fill-rule:evenodd;stroke:none"
             id="path7831" />
        </g>
        <g
           id="g7833"
           transform="translate(437.5029,309.4268)">
          <path
             d="m 0,0 c 31.655,0 57.473,39.914 57.473,88.852 0,48.937 -25.818,88.851 -57.473,88.851 -31.653,0 -57.471,-39.914 -57.471,-88.851 C -57.471,39.914 -31.653,0 0,0"
             style="fill:#f2f2f2;fill-opacity:1;fill-rule:evenodd;stroke:none"
             id="path7835" />
        </g>
        <g
           id="g7837"
           transform="translate(437.5029,314.7549)">
          <path
             d="m 0,0 c 28.72,0 52.145,37.52 52.145,83.524 0,46.002 -23.425,83.522 -52.145,83.522 -28.718,0 -52.143,-37.52 -52.143,-83.522 C -52.143,37.521 -28.718,0 0,0"
             style="fill:#b3b3b3;fill-opacity:1;fill-rule:evenodd;stroke:none"
             id="path7839" />
        </g>
        <g
           id="g7841"
           transform="translate(430.127,315.5898)">
          <path
             d="m 0,0 c -25.303,5.741 -44.767,40.572 -44.767,82.689 0,42.117 19.464,76.947 44.767,82.687 25.305,-5.74 44.768,-40.57 44.768,-82.687 C 44.768,40.572 25.306,5.741 0,0"
             style="fill:#e6e6e6;fill-opacity:1;fill-rule:evenodd;stroke:none"
             id="path7843" />
        </g>
        <g
           id="g7845"
           transform="translate(427.4531,381.1343)">
          <path
             d="m 0,0 c 10.052,0 18.198,-19.863 18.198,-34.673 0,-14.813 -8.146,-18.965 -18.198,-18.965 -10.053,0 -18.201,4.152 -18.201,18.965 C -18.201,-19.863 -10.053,0 0,0"
             style="fill:#333333;fill-opacity:1;fill-rule:evenodd;stroke:none"
             id="path7847" />
        </g>
        <g
           id="g7849"
           transform="translate(232.8428,455.8462)">
          <path
             d="m 0,0 c 40.733,0 64.313,-30.491 64.313,-71.224 0,-40.733 -23.58,-76.284 -64.313,-76.284 -40.73,0 -83.194,35.551 -83.194,76.284 C -83.194,-30.491 -40.73,0 0,0"
             style="fill:#ffcc00;fill-opacity:1;fill-rule:evenodd;stroke:none"
             id="path7851" />
        </g>
        <g
           id="g7853"
           transform="translate(187.708,322.3203)">
          <path
             d="m 0,0 h 82.159 c 0.658,0 1.312,0.014 1.96,0.042 C 73.898,-8.73 60.784,-13.982 45.135,-13.982 29.513,-13.982 13.636,-8.748 0,0"
             style="fill:#ffbb00;fill-opacity:1;fill-rule:evenodd;stroke:none"
             id="path7855" />
        </g>
        <g
           id="g7857"
           transform="translate(181.1748,439.4009)">
          <path
             d="m 0,0 c 19.371,-13.369 28.066,-30.209 67.56,-15.168 8.443,3.216 18.448,8.559 27.997,15.02 C 84.769,10.302 69.947,16.445 51.668,16.445 33.477,16.445 14.943,10.359 0,0"
             style="fill:#ffdd30;fill-opacity:1;fill-rule:evenodd;stroke:none"
             id="path7859" />
        </g>
        <g
           id="g7861"
           transform="translate(202.5986,450.4185)">
          <path
             d="m 0,0 c 2.574,-2.004 5.169,-3.89 7.795,-5.412 10.35,-5.995 22.387,-2.226 32.826,1.749 3.998,1.523 8.054,3.429 12.025,5.566 C 45.904,4.197 38.421,5.428 30.244,5.428 20.04,5.428 9.728,3.512 0,0"
             style="fill:#fff07f;fill-opacity:1;fill-rule:evenodd;stroke:none"
             id="path7863" />
        </g>
        <g
           id="g7865"
           transform="translate(161.001,200.1367)">
          <path
             d="m 0,0 c -19.806,16.622 30.508,25.654 39.134,26.894 36.726,5.273 56.796,5.875 93.518,5.538 27.154,-0.25 36.57,0.617 63.421,5.317 26.047,4.56 35.902,-5.272 57.203,-17.819 14.051,-8.277 52.791,-33.494 14.024,-40.285 -69.291,-12.137 -137.013,4.86 -206.154,6.706 C 40.518,-13.096 17.308,-12.741 0,0"
             style="fill:#ff7512;fill-opacity:1;fill-rule:evenodd;stroke:none"
             id="path7867" />
        </g>
        <g
           id="g7869"
           transform="translate(389.1973,206.2373)">
          <path
             d="m 0,0 c -2.41,-6.216 -15.301,-8.355 -21.452,-10.516 -22.591,-7.937 -106.394,-10.838 -126.658,0.903 -34.774,20.139 106.709,27.258 111.108,27.39 12.762,0.38 26.561,-0.64 35.111,-11.693 C -0.14,3.819 0.146,2.729 0,0"
             style="fill:#ff8833;fill-opacity:1;fill-rule:evenodd;stroke:none"
             id="path7871" />
        </g>
        <g
           id="g7873"
           transform="translate(587.5156,282.7393)">
          <path
             d="m 0,0 c -7.845,-26.932 -83.715,-13.448 -103.406,-8.185 -34.379,9.191 -20.551,25.979 8.571,29.869 15.577,2.082 93.107,4.379 94.883,-19.288 z"
             style="fill:#ff7512;fill-opacity:1;fill-rule:evenodd;stroke:none"
             id="path7875" />
        </g>
        <g
           id="g7877"
           transform="translate(424.0254,327.6738)">
          <path
             d="M 0,0 C 14.5,-10.018 19.175,-32.442 13.604,-53.244 8.239,-73.277 100.735,-61.8 80.476,-57.363 56.856,-52.19 59.58,-7.022 17.264,4.692 11.517,6.281 -4.903,3.391 0,0"
             style="fill:#eb6200;fill-opacity:1;fill-rule:evenodd;stroke:none"
             id="path7879" />
        </g>
        <g
           id="g7881"
           transform="translate(554.4736,289.7363)">
          <path
             d="m 0,0 c -4.106,-14.101 -43.831,-7.04 -54.141,-4.285 -17.999,4.812 -10.76,13.602 4.488,15.639 8.156,1.089 48.75,2.293 49.677,-10.099 z"
             style="fill:#ff8833;fill-opacity:1;fill-rule:evenodd;stroke:none"
             id="path7883" />
        </g>
      </g>
    </g>
  </g>
</svg>
